<svg width="48" height="48" viewBox="0 0 48 48" fill="none" xmlns="http://www.w3.org/2000/svg">
<g clip-path="url(#clip0_8_1876)">
<path d="M23.9852 4.88213L23.9849 14.6701" stroke="#181717" stroke-width="2" stroke-miterlimit="10"/>
<path d="M23.9926 33.8702L23.9851 43.0805" stroke="#181717" stroke-width="2" stroke-miterlimit="10"/>
<path d="M23.9998 43.2C34.6037 43.2 43.1998 34.6039 43.1998 24C43.1998 13.3961 34.6037 4.8 23.9998 4.8C13.3959 4.8 4.7998 13.3961 4.7998 24C4.7998 34.6039 13.3959 43.2 23.9998 43.2Z" stroke="#181717" stroke-width="2" stroke-miterlimit="10"/>
<path d="M43.1852 24.2702C43.1852 18.9683 34.589 14.6702 23.9852 14.6702C13.3813 14.6702 4.78516 18.9683 4.78516 24.2702C4.78516 29.5722 13.3813 33.8702 23.9852 33.8702C34.589 33.8702 43.1852 29.5721 43.1852 24.2702Z" stroke="#181717" stroke-width="2" stroke-miterlimit="10"/>
<path d="M23.9849 29.0901C26.6469 29.0901 28.8049 26.9321 28.8049 24.2701C28.8049 21.608 26.6469 19.45 23.9849 19.45C21.3228 19.45 19.1648 21.608 19.1648 24.2701C19.1648 26.9321 21.3228 29.0901 23.9849 29.0901Z" stroke="#181717" stroke-width="2" stroke-miterlimit="10"/>
</g>
<defs>
<clipPath id="clip0_8_1876">
<rect width="48" height="48" fill="white"/>
</clipPath>
</defs>
</svg>
