<svg width="48" height="48" viewBox="0 0 48 48" fill="none" xmlns="http://www.w3.org/2000/svg">
<g clip-path="url(#clip0_8_1886)">
<path d="M24.03 41.595C28.8846 41.595 32.82 37.6596 32.82 32.805C32.82 27.9504 28.8846 24.015 24.03 24.015C19.1754 24.015 15.24 27.9504 15.24 32.805C15.24 37.6596 19.1754 41.595 24.03 41.595Z" stroke="#181717" stroke-width="2" stroke-miterlimit="10"/>
<path d="M23.9999 41.58C31.2818 41.58 37.1849 35.6769 37.1849 28.395C37.1849 21.1131 31.2818 15.21 23.9999 15.21C16.7181 15.21 10.8149 21.1131 10.8149 28.395C10.8149 35.6769 16.7181 41.58 23.9999 41.58Z" stroke="#181717" stroke-width="2" stroke-miterlimit="10"/>
<path d="M24 41.595C33.7175 41.595 41.595 33.7174 41.595 24C41.595 14.2825 33.7175 6.405 24 6.405C14.2826 6.405 6.40503 14.2825 6.40503 24C6.40503 33.7174 14.2826 41.595 24 41.595Z" stroke="#181717" stroke-width="2" stroke-miterlimit="10"/>
</g>
<defs>
<clipPath id="clip0_8_1886">
<rect width="48" height="48" fill="white"/>
</clipPath>
</defs>
</svg>
