<svg width="163" height="46" viewBox="0 0 163 46" fill="none" xmlns="http://www.w3.org/2000/svg">
<g clip-path="url(#clip0_2_2577)">
<path d="M36.8372 1.96483V0.122513L0 0L0.00693471 1.86313C0.048543 12.6374 0.048543 17.5425 0.0138694 25.7116C-0.00693471 31.3426 2.4572 35.7738 7.34154 38.8783C10.7326 41.0373 14.0081 43.1501 17.0779 45.1588C17.1981 45.2374 17.4593 45.4015 17.4593 45.4015L18.3955 45.9933L19.3594 45.4455C19.4588 45.3877 19.7108 45.2443 19.8679 45.1403C22.2604 43.5222 24.9002 41.8209 27.7088 40.0803C30.4711 38.3697 32.3943 36.8441 33.5871 35.4156C35.7207 32.8659 36.8094 29.6667 36.821 25.9058C36.8418 18.5735 36.851 13.6244 36.8395 1.96252L36.8372 1.96483ZM33.1202 25.8965C33.1109 28.8091 32.3342 31.1484 30.7485 33.0439C29.8239 34.1488 28.1457 35.4595 25.7601 36.9366C23.1596 38.5477 20.7024 40.1265 18.4509 41.636C15.5569 39.7451 12.4917 37.771 9.32949 35.7554C5.53621 33.3421 3.69851 30.0596 3.71469 25.7231C3.74705 18.0279 3.74937 13.2291 3.71469 3.70776L33.1433 3.80484C33.1502 14.1653 33.1433 18.9641 33.1225 25.8919L33.1202 25.8965Z" fill="#F1F1F1"/>
<path d="M20.9567 7.50317H20.8781L11.3405 7.5887L10.2749 7.59795L10.7164 8.56881L20.6931 30.5148L20.8804 30.9286L21.3334 30.9217L23.6127 30.8847L24.669 30.8685L24.2322 29.9046L15.6747 11.0329C16.1763 11.0283 16.6687 11.0214 17.1472 11.0144C17.8014 11.0052 18.4186 10.9936 19.0427 10.9936C20.0829 10.9936 20.9428 11.0237 21.7518 11.0861C24.112 11.2687 25.522 13.4948 25.4735 15.4527C25.4642 15.7994 25.3047 18.846 22.4176 19.0564L21.4444 19.1257L21.8327 20.0226L22.6903 22.0083L22.8961 22.4868L23.4116 22.422C25.314 22.184 26.8581 21.1183 27.8706 19.343C28.6727 17.9376 29.0726 16.1484 28.9385 14.5581C28.601 10.536 25.166 7.50317 20.952 7.50317H20.9567Z" fill="#F1F1F1"/>
<path d="M9.052 11.611L8.46948 10.2402L7.79451 11.5671L6.58093 13.9549L6.4353 14.2416L6.56013 14.5374L14.8171 34.1442L15.0066 34.5949L15.4967 34.5672L17.7366 34.4401L18.7213 34.3823L18.3376 33.4761L9.052 11.611Z" fill="#F1F1F1"/>
</g>
<g clip-path="url(#clip1_2_2577)">
<path d="M52 28.5688V16.0186H55.0941C56.4263 16.0186 57.4092 16.3027 58.0411 16.8711C58.6729 17.4394 58.9889 18.3889 58.9889 19.7211C58.9889 20.3931 58.9103 20.9648 58.7548 21.4328C58.5977 21.9025 58.3604 22.2853 58.0428 22.5795C57.7235 22.8754 57.319 23.0893 56.8258 23.2231C56.3327 23.3568 55.7577 23.4236 55.0958 23.4236H54.1563V28.5688H52ZM54.1563 21.6501H54.9905C55.3381 21.6501 55.6307 21.6217 55.868 21.5632C56.1054 21.5047 56.296 21.401 56.4414 21.2506C56.5868 21.1002 56.6871 20.8996 56.7456 20.6505C56.8041 20.4014 56.8325 20.0922 56.8325 19.7211C56.8325 19.35 56.8041 19.0408 56.7456 18.7917C56.6871 18.5426 56.5868 18.3454 56.4414 18.2C56.296 18.0545 56.1054 17.9509 55.868 17.8874C55.6307 17.8239 55.3381 17.7921 54.9905 17.7921H54.1563V21.6518V21.6501Z" fill="#F1F1F1"/>
<path d="M62.5859 28.5688V16.0186H64.7423V26.6916H68.1322V28.5688H62.5876H62.5859Z" fill="#F1F1F1"/>
<path d="M72.7023 28.5688H70.6162L72.9297 16.0186H75.6059L77.9177 28.5688H75.8315L75.4487 25.7873H73.0851L72.7023 28.5688ZM73.3977 23.9101H75.1362L74.2837 18.5209H74.2486L73.396 23.9101H73.3977Z" fill="#F1F1F1"/>
<path d="M84.1061 28.5688H81.9514V23.3534L79.3438 16.0186H81.5335L83.0463 20.7993H83.0814L84.524 16.0186H86.7137L84.1061 23.3534V28.5688Z" fill="#F1F1F1"/>
<path d="M89.9297 28.5688V16.0186H95.7016V17.8957H92.086V21.1286H94.8675V23.0058H92.086V26.6916H95.9457V28.5688H89.9314H89.9297Z" fill="#F1F1F1"/>
<path d="M101.801 28.5688H99.645V16.0186H102.669C103.874 16.0186 104.783 16.3027 105.399 16.8711C106.012 17.4394 106.32 18.3889 106.32 19.7211C106.32 20.2309 106.276 20.6655 106.189 21.0249C106.102 21.3843 105.987 21.6885 105.842 21.9376C105.696 22.1867 105.534 22.3873 105.355 22.5377C105.175 22.6882 104.992 22.8052 104.807 22.8854L106.632 28.5688H104.442L102.913 23.3718C102.774 23.3952 102.602 23.4103 102.4 23.4153C102.198 23.422 101.997 23.4236 101.8 23.4236V28.5688H101.801ZM101.801 21.6501H102.567C102.856 21.6501 103.104 21.6217 103.306 21.5632C103.508 21.5047 103.674 21.401 103.801 21.2506C103.928 21.1002 104.021 20.8996 104.078 20.6505C104.137 20.4014 104.165 20.0922 104.165 19.7211C104.165 18.9789 104.043 18.4724 103.801 18.2C103.557 17.9275 103.145 17.7921 102.567 17.7921H101.801V21.6518V21.6501Z" fill="#F1F1F1"/>
<path d="M110.4 28.5502V16H113.494C114.826 16 115.809 16.2842 116.441 16.8525C117.073 17.4208 117.389 18.3703 117.389 19.7025C117.389 20.3745 117.31 20.9462 117.155 21.4142C116.998 21.884 116.761 22.2667 116.443 22.5609C116.124 22.8568 115.719 23.0708 115.226 23.2045C114.733 23.3382 114.158 23.4051 113.496 23.4051H112.556V28.5502H110.4ZM112.556 21.6315H113.391C113.738 21.6315 114.031 21.6031 114.268 21.5446C114.506 21.4861 114.696 21.3825 114.842 21.232C114.987 21.0816 115.087 20.881 115.146 20.6319C115.204 20.3829 115.233 20.0736 115.233 19.7025C115.233 19.3315 115.204 19.0222 115.146 18.7731C115.087 18.5241 114.987 18.3268 114.842 18.1814C114.696 18.036 114.506 17.9323 114.268 17.8688C114.031 17.8053 113.738 17.7735 113.391 17.7735H112.556V21.6332V21.6315Z" fill="#F1F1F1"/>
<path d="M123.246 28.5502H121.09V16H124.114C125.319 16 126.228 16.2842 126.843 16.8525C127.457 17.4208 127.764 18.3703 127.764 19.7025C127.764 20.2124 127.721 20.647 127.634 21.0064C127.547 21.3658 127.432 21.67 127.286 21.9191C127.141 22.1681 126.979 22.3687 126.8 22.5192C126.619 22.6696 126.437 22.7866 126.252 22.8668L128.077 28.5502H125.887L124.358 23.3533C124.219 23.3767 124.047 23.3917 123.845 23.3967C123.642 23.4034 123.442 23.4051 123.245 23.4051V28.5502H123.246ZM123.246 21.6315H124.012C124.301 21.6315 124.548 21.6031 124.751 21.5446C124.953 21.4861 125.118 21.3825 125.245 21.232C125.372 21.0816 125.466 20.881 125.523 20.6319C125.581 20.3829 125.61 20.0736 125.61 19.7025C125.61 18.9604 125.488 18.4539 125.245 18.1814C125.001 17.9089 124.59 17.7735 124.012 17.7735H123.246V21.6332V21.6315Z" fill="#F1F1F1"/>
<path d="M132.077 28.5502V16H134.232V28.5502H132.077Z" fill="#F1F1F1"/>
<path d="M138.613 28.5502V16H140.612L143.237 23.1794H143.272V16H145.219V28.5502H143.342L140.596 20.7105H140.56V28.5502H138.613Z" fill="#F1F1F1"/>
<path d="M150.555 17.8772H148.469V16H154.796V17.8772H152.71V28.5502H150.553V17.8772H150.555Z" fill="#F1F1F1"/>
</g>
<defs>
<clipPath id="clip0_2_2577">
<rect width="36.8418" height="45.9933" fill="white"/>
</clipPath>
<clipPath id="clip1_2_2577">
<rect width="107.596" height="12.5642" fill="white" transform="translate(52 16)"/>
</clipPath>
</defs>
</svg>
