<?xml version="1.0" encoding="UTF-8"?>
<svg id="Layer_1" xmlns="http://www.w3.org/2000/svg" version="1.1" viewBox="0 0 117.54 117.41">
  <!-- Generator: Adobe Illustrator 30.2.1, SVG Export Plug-In . SVG Version: 2.1.1 Build 1)  -->
  <path d="M89.49,79.98c4.91-7.04,8.46-15.46,8.35-24.16-.16-12.87-9.54-22.39-22.39-22.77-11.27-.34-24.53,5.66-33.98,11.52-6.04,3.74-11.75,7.9-17.01,12.66-6.47,5.86-13.68,13.77-16.21,22.25-.77,2.57-.82,5.1-.37,7.82-2.46-3.94-4.54-8.67-5.32-13.25-.4-2.35-.4-4.61.06-6.97.59-3.05,1.68-5.85,3.22-8.57,2.74-4.84,6.2-9.19,10.21-13.07,4.88-4.73,10.28-8.87,16.07-12.47,9.88-6.14,21.91-11.48,33.44-13.29,4.86-.76,9.65-.82,14.47.08,12.11,2.27,21.79,10.73,25.52,22.48,4.62,14.57.5,30.26-7.73,42.71-5.98,9.05-13.68,16.14-22.21,22.73l-6.95,5.38c-.65.5-3.06,2.69-1.39,3.44.26,0,.02.09-.16.15-2.33.4-14.08,2.2-13.83-1.87.12-2.07,2.59-4.42,4.13-5.74,2.27-1.94,4.57-3.69,6.94-5.52l8.74-6.75c3.34-2.58,6.37-5.37,9.34-8.37,2.61-2.63,4.96-5.39,7.08-8.43Z"/>
  <path d="M68.2,71.42c2.41-1.88,5.48-4.87,7.12-7.45.51-.79.85-1.67,1.01-2.58.27-1.48-.57-2.76-2-3.21-4.9-1.56-13.15,3.85-17.16,6.63-3.44,2.38-6.66,4.92-9.89,7.59-4.86,4.01-9.44,8.22-13.75,12.8-2.93,3.12-5.91,6.74-7.99,10.46-1.84,3.37-3.16,7.44-1.05,11.13-2.32-1.39-4.43-3.05-6.29-5.03-2.91-3.09-4.63-6.51-3.89-10.86.78-4.62,3.47-9,6.34-12.64,5.62-7.14,13.72-13.89,21.12-19.18,4.63-3.31,9.35-6.36,14.37-9.04s10.57-5.02,16.17-5.54c2.69-.25,5.32.06,7.79,1.07,4.22,1.72,7.2,5.28,8.23,9.71,1.09,4.67-.09,9.9-2.16,14.17-2.61,5.39-6.7,9.93-11.11,13.92-2.52,2.28-5.06,4.38-7.76,6.46l-8.34,6.44c-3.17,2.45-6.24,4.87-9.19,7.58-2.18,2-5.02,4.83-5.9,7.63-.73,2.32.96,3.89,2.95,4.67-3.98-.42-9.43-1.84-12.53-4.26-3.43-2.67-2.2-6.74-.28-9.92,1.35-2.24,2.92-4.2,4.72-6.12,2.74-2.93,5.58-5.65,8.75-8.14l12.05-9.49,8.69-6.8Z"/>
  <g>
    <path d="M112.8,36.54c5.31,21.48-.14,45.63-12.94,58.39-12.54,12.49-18.9,15.12-23.93,17.79-2.69,1.42-1.73,2.63-1.07,2.43,28.63-8.82,53.36-40.81,37.94-78.6Z"/>
    <path d="M0,55.36C19.77,5.17,88.73-5.29,110.44,31.55,80.11-24.04,1.47.1,0,55.36Z"/>
  </g>
</svg>