<?xml version="1.0" encoding="UTF-8"?>
<svg id="Layer_1" xmlns="http://www.w3.org/2000/svg" version="1.1" viewBox="0 0 716.85 132.25">
  <!-- Generator: Adobe Illustrator 30.2.1, SVG Export Plug-In . SVG Version: 2.1.1 Build 1)  -->
  <defs>
    <style>
      .st0 {
        fill: #010101;
      }
    </style>
  </defs>
  <g>
    <path d="M650.99,88.56c-3.78.16-6.87.18-9.79-.03l-27.13-31.18-.27,31.36-10.48-.11.08-43.61s-3.07-3.49-4.33-4.94l13.09-.15,28.02,32.34.22-32.18,10.53-.05.05,48.55Z"/>
    <path d="M560.46,88.37c-7.47,2.33-15.17-.4-18.73-7.45l-5.18-10.23-11.68-.03-.18,18.1-10.55-.11-.05-48.65,27.3.04c2.16,0,5.17.96,7.3,1.55,6.12,2.43,9.75,7.84,9.53,14.1s-3.83,11.73-10.97,13.61c3.75,6.78,4.18,11.66,12.61,10.22l.6,8.84ZM541.32,61.48c3.87-.01,6.09-3.02,5.99-6.49-.08-2.67-2.45-5.61-6.05-5.61h-16.53s.05,12.15.05,12.15l16.54-.04Z"/>
    <path d="M441.77,88.36c-8.05,2.48-15.19-.55-18.89-7.69l-5.18-10h-11.47s.07,18.06.07,18.06l-10.5-.2v-48.41c10.19-.08,19.91-.45,29.7.23,7.44.52,13.15,6.12,13.89,12.35.91,7.69-2.78,14.1-10.73,16.45,3.26,6.04,3.98,11.83,12.75,10.42l.36,8.79ZM423.41,61.3c3.78-.01,5.58-3.74,5.48-6.24-.12-3-2.32-5.67-5.85-5.69l-16.6-.08-.11,12.08,17.08-.07Z"/>
    <polygon points="371.55 68.38 351.39 68.43 351.46 79.49 380.68 79.51 380.85 88.77 340.7 88.82 340.75 40.08 379.15 39.98 379.13 49.28 351.42 49.35 351.25 59.18 371.36 59.14 371.55 68.38"/>
    <path d="M467.01,71.73l-.15,16.97-10.26-.05v-48.67c10.26.07,19.61-.29,28.98.39s14.84,7.31,14.92,15.4c.08,8.57-6.14,15.68-15.29,15.77l-18.2.18ZM483.13,62.65c4.33-.01,6.8-3.48,6.66-6.86-.14-3.54-2.73-6.54-6.8-6.52l-15.98.07.04,13.36,16.08-.05Z"/>
    <path d="M130.86,71.73l-.13,16.96-10.6-.05.08-48.61c10.35.07,19.53-.3,28.98.38,8.82.64,14.97,7.43,15.01,15.42.05,8.41-6.21,15.66-15.28,15.74l-18.07.16ZM146.87,62.55c4.24-.01,6.57-3.51,6.5-6.74s-2.83-6.42-6.75-6.45l-15.86-.11.1,13.34,16.01-.05Z"/>
    <path d="M262.18,80.69l-24.03.97-3.9,7.29-11.08-.46,21.73-44.77-1.74-3.57,10.19-.11,23.93,48.32-11.63.47-3.48-8.14ZM258.1,72.13l-7.94-16.77-8.25,17.24,16.2-.46Z"/>
    <polygon points="329.62 40.31 309.19 69.02 309.03 88.69 298.52 88.65 298.61 69.8 278.01 40.23 290.22 40 304.01 60.17 317.43 40 329.62 40.31"/>
    <polygon points="691.74 88.59 681.14 88.63 681.11 49.26 664.31 49.19 664.44 40.01 708.21 40.03 708.08 49.31 691.72 49.32 691.74 88.59"/>
    <path d="M214.51,79.59c.33,2.71.38,5.61.29,9.17l-36.76.03.04-48.73,10.48-.03.06,39.2,25.9.37Z"/>
    <rect x="574.88" y="39.95" width="10.75" height="48.88" transform="translate(-.07 .65) rotate(-.06)"/>
  </g>
  <g>
    <polygon points="45.9 58.53 85.34 38.97 85.34 25.68 45.9 45.24 45.9 58.53"/>
    <polygon points="6.41 58.61 85.34 19.15 85.34 5.86 6.41 45.32 6.41 58.61"/>
    <polygon points="6.38 38.71 45.83 19.15 45.83 5.86 6.38 25.42 6.38 38.71"/>
    <path class="st0" d="M72.32,79.89c-.02,5.12-1.35,9.19-4.07,12.44-1.13,1.35-3.66,3.7-9.26,7.17-4.61,2.85-9,5.67-13.09,8.38-5.33-3.47-10.91-7.07-16.65-10.72-6.77-4.31-9.91-9.9-9.88-17.6.03-7.85.05-14.19.05-21.05l-13,6.51c0,4.55-.02,9.17-.05,14.48-.04,12.08,5.45,21.97,15.9,28.62,6.72,4.28,13.24,8.48,19.35,12.49.26.17.81.52.81.52l3.28,2.12,3.4-1.97s.83-.48,1.2-.72c4.74-3.21,9.97-6.58,15.52-10.02,5.76-3.57,9.82-6.8,12.39-9.88,4.69-5.6,7.07-12.58,7.1-20.74.03-11.53.05-20.1.05-34.58l-13,6.51c0,10.76-.02,18.36-.05,28.03Z"/>
  </g>
  <path d="M32.84,81.79c.59-6.49,5.11-10.84,11.4-11.37-6.52-.52-10.85-5.1-11.41-11.42-.64,6.44-4.91,10.74-11.16,11.42,6.4.75,10.45,5.07,11.17,11.37ZM45.94,90c.6-4.09,3.17-6.62,7.16-7.31-3.94-.63-6.73-3.39-7.13-7.42-.68,4.11-3.19,6.82-7.33,7.41,4.01.51,6.72,3.4,7.31,7.31Z"/>
</svg>