<?xml version="1.0" encoding="UTF-8"?>
<svg id="Layer_1" xmlns="http://www.w3.org/2000/svg" version="1.1" viewBox="0 0 79 117.41">
  <!-- Generator: Adobe Illustrator 30.2.1, SVG Export Plug-In . SVG Version: 2.1.1 Build 1)  -->
  <defs>
    <style>
      .st0 {
        fill: #010101;
      }
    </style>
  </defs>
  <g>
    <polygon points="39.53 52.68 78.98 33.12 78.98 19.83 39.53 39.39 39.53 52.68"/>
    <polygon points=".04 52.75 78.98 13.29 78.98 0 .04 39.46 .04 52.75"/>
    <polygon points=".02 32.85 39.46 13.29 39.46 0 .02 19.56 .02 32.85"/>
    <path class="st0" d="M65.95,74.04c-.02,5.12-1.35,9.19-4.07,12.44-1.13,1.35-3.66,3.7-9.26,7.17-4.61,2.85-9,5.67-13.09,8.38-5.33-3.47-10.91-7.07-16.65-10.72-6.77-4.31-9.91-9.9-9.88-17.6.03-7.85.05-14.19.05-21.05L.05,59.18c0,4.55-.02,9.17-.05,14.48-.04,12.08,5.45,21.97,15.9,28.62,6.72,4.28,13.24,8.48,19.35,12.49.26.17.81.52.81.52l3.28,2.12,3.4-1.97s.83-.48,1.2-.72c4.74-3.21,9.97-6.58,15.52-10.02,5.76-3.57,9.82-6.8,12.39-9.88,4.69-5.6,7.07-12.58,7.1-20.74.03-11.53.05-20.1.05-34.58l-13,6.51c0,10.76-.02,18.36-.05,28.03Z"/>
  </g>
  <path d="M31.26,77.38c.76-8.36,6.58-13.96,14.69-14.65-8.4-.66-13.98-6.57-14.71-14.71-.83,8.3-6.32,13.83-14.38,14.71,8.24.97,13.47,6.53,14.39,14.65ZM48.14,87.95c.78-5.27,4.08-8.53,9.22-9.42-5.08-.81-8.67-4.37-9.19-9.56-.87,5.3-4.12,8.79-9.45,9.55,5.16.66,8.66,4.39,9.42,9.42Z"/>
</svg>