<svg width="188" height="46" viewBox="0 0 188 46" fill="none" xmlns="http://www.w3.org/2000/svg">
<g clip-path="url(#clip0_2_2577)">
<path d="M36.8372 1.96483V0.122513L0 0L0.00693471 1.86313C0.048543 12.6374 0.048543 17.5425 0.0138694 25.7116C-0.00693471 31.3426 2.4572 35.7738 7.34154 38.8783C10.7326 41.0373 14.0081 43.1501 17.0779 45.1588C17.1981 45.2374 17.4593 45.4015 17.4593 45.4015L18.3955 45.9933L19.3594 45.4455C19.4588 45.3877 19.7108 45.2443 19.8679 45.1403C22.2604 43.5222 24.9002 41.8209 27.7088 40.0803C30.4711 38.3697 32.3943 36.8441 33.5871 35.4156C35.7207 32.8659 36.8094 29.6667 36.821 25.9058C36.8418 18.5735 36.851 13.6244 36.8395 1.96252L36.8372 1.96483ZM33.1202 25.8965C33.1109 28.8091 32.3342 31.1484 30.7485 33.0439C29.8239 34.1488 28.1457 35.4595 25.7601 36.9366C23.1596 38.5477 20.7024 40.1265 18.4509 41.636C15.5569 39.7451 12.4917 37.771 9.32949 35.7554C5.53621 33.3421 3.69851 30.0596 3.71469 25.7231C3.74705 18.0279 3.74937 13.2291 3.71469 3.70776L33.1433 3.80484C33.1502 14.1653 33.1433 18.9641 33.1225 25.8919L33.1202 25.8965Z" fill="#F1F1F1"/>
<path d="M20.9567 7.50317H20.8781L11.3405 7.5887L10.2749 7.59795L10.7164 8.56881L20.6931 30.5148L20.8804 30.9286L21.3334 30.9217L23.6127 30.8847L24.669 30.8685L24.2322 29.9046L15.6747 11.0329C16.1763 11.0283 16.6687 11.0214 17.1472 11.0144C17.8014 11.0052 18.4186 10.9936 19.0427 10.9936C20.0829 10.9936 20.9428 11.0237 21.7518 11.0861C24.112 11.2687 25.522 13.4948 25.4735 15.4527C25.4642 15.7994 25.3047 18.846 22.4176 19.0564L21.4444 19.1257L21.8327 20.0226L22.6903 22.0083L22.8961 22.4868L23.4116 22.422C25.314 22.184 26.8581 21.1183 27.8706 19.343C28.6727 17.9376 29.0726 16.1484 28.9385 14.5581C28.601 10.536 25.166 7.50317 20.952 7.50317H20.9567Z" fill="#F1F1F1"/>
<path d="M9.052 11.611L8.46948 10.2402L7.79451 11.5671L6.58093 13.9549L6.4353 14.2416L6.56013 14.5374L14.8171 34.1442L15.0066 34.5949L15.4967 34.5672L17.7366 34.4401L18.7213 34.3823L18.3376 33.4761L9.052 11.611Z" fill="#F1F1F1"/>
</g>
<g clip-path="url(#clip1_2_2577)">
<path d="M52 30.0053V15.0221H55.6939C57.2845 15.0221 58.4579 15.3614 59.2122 16.0399C59.9666 16.7184 60.3438 17.8519 60.3438 19.4424C60.3438 20.2447 60.25 20.9272 60.0644 21.486C59.8768 22.0467 59.5934 22.5037 59.2142 22.855C58.8331 23.2082 58.3501 23.4636 57.7614 23.6233C57.1727 23.7829 56.4862 23.8628 55.6959 23.8628H54.5744V30.0053H52ZM54.5744 21.7454H55.5702C55.9853 21.7454 56.3345 21.7115 56.6179 21.6416C56.9013 21.5718 57.1288 21.4481 57.3024 21.2684C57.476 21.0888 57.5958 20.8494 57.6656 20.552C57.7355 20.2547 57.7694 19.8855 57.7694 19.4424C57.7694 18.9994 57.7355 18.6302 57.6656 18.3329C57.5958 18.0355 57.476 17.8 57.3024 17.6264C57.1288 17.4528 56.9013 17.3291 56.6179 17.2532C56.3345 17.1774 55.9853 17.1395 55.5702 17.1395H54.5744V21.7474V21.7454Z" fill="#F1F1F1"/>
<path d="M64.6382 30.0053V15.0221H67.2126V27.7642H71.2597V30.0053H64.6402H64.6382Z" fill="#F1F1F1"/>
<path d="M76.7159 30.0053H74.2253L76.9873 15.0221H80.1823L82.9423 30.0053H80.4517L79.9947 26.6846H77.1729L76.7159 30.0053ZM77.5461 24.4435H79.6215L78.6038 18.0096H78.5619L77.5441 24.4435H77.5461Z" fill="#F1F1F1"/>
<path d="M90.3304 30.0053H87.758V23.779L84.6448 15.0221H87.2591L89.0651 20.7296H89.107L90.8293 15.0221H93.4435L90.3304 23.779V30.0053Z" fill="#F1F1F1"/>
<path d="M97.283 30.0053V15.0221H104.174V17.2632H99.8573V21.1228H103.178V23.3639H99.8573V27.7642H104.465V30.0053H97.285H97.283Z" fill="#F1F1F1"/>
<path d="M111.456 30.0053H108.882V15.0221H112.492C113.931 15.0221 115.016 15.3614 115.751 16.0399C116.483 16.7184 116.85 17.8519 116.85 19.4424C116.85 20.0511 116.798 20.57 116.695 20.999C116.591 21.4281 116.453 21.7913 116.279 22.0887C116.106 22.386 115.912 22.6255 115.699 22.8051C115.483 22.9847 115.266 23.1244 115.044 23.2202L117.223 30.0053H114.609L112.783 23.8009C112.617 23.8288 112.412 23.8468 112.17 23.8528C111.929 23.8608 111.689 23.8628 111.454 23.8628V30.0053H111.456ZM111.456 21.7454H112.37C112.715 21.7454 113.011 21.7115 113.252 21.6416C113.494 21.5718 113.691 21.4481 113.843 21.2684C113.994 21.0888 114.106 20.8494 114.174 20.552C114.244 20.2547 114.278 19.8855 114.278 19.4424C114.278 18.5564 114.132 17.9517 113.843 17.6264C113.551 17.3011 113.06 17.1395 112.37 17.1395H111.456V21.7474V21.7454Z" fill="#F1F1F1"/>
<path d="M122.722 29.9833V15H126.416C128.006 15 129.18 15.3393 129.934 16.0178C130.689 16.6963 131.066 17.8298 131.066 19.4203C131.066 20.2226 130.972 20.9051 130.786 21.4639C130.599 22.0246 130.315 22.4816 129.936 22.8329C129.555 23.1861 129.072 23.4416 128.483 23.6012C127.895 23.7609 127.208 23.8407 126.418 23.8407H125.296V29.9833H122.722ZM125.296 21.7233H126.292C126.707 21.7233 127.056 21.6894 127.34 21.6195C127.623 21.5497 127.851 21.426 128.024 21.2463C128.198 21.0667 128.318 20.8273 128.388 20.5299C128.457 20.2326 128.491 19.8634 128.491 19.4203C128.491 18.9773 128.457 18.6081 128.388 18.3108C128.318 18.0134 128.198 17.7779 128.024 17.6043C127.851 17.4307 127.623 17.307 127.34 17.2311C127.056 17.1553 126.707 17.1174 126.292 17.1174H125.296V21.7253V21.7233Z" fill="#F1F1F1"/>
<path d="M138.058 29.9833H135.484V15H139.094C140.533 15 141.618 15.3393 142.353 16.0178C143.085 16.6963 143.452 17.8298 143.452 19.4203C143.452 20.029 143.401 20.5479 143.297 20.9769C143.193 21.406 143.055 21.7692 142.882 22.0666C142.708 22.3639 142.515 22.6034 142.301 22.783C142.085 22.9626 141.868 23.1023 141.646 23.1981L143.826 29.9833H141.211L139.385 23.7788C139.22 23.8068 139.014 23.8247 138.773 23.8307C138.531 23.8387 138.292 23.8407 138.056 23.8407V29.9833H138.058ZM138.058 21.7233H138.972C139.318 21.7233 139.613 21.6894 139.854 21.6195C140.096 21.5497 140.293 21.426 140.445 21.2463C140.597 21.0667 140.708 20.8273 140.776 20.5299C140.846 20.2326 140.88 19.8634 140.88 19.4203C140.88 18.5343 140.734 17.9296 140.445 17.6043C140.154 17.279 139.663 17.1174 138.972 17.1174H138.058V21.7253V21.7233Z" fill="#F1F1F1"/>
<path d="M148.601 29.9833V15H151.174V29.9833H148.601Z" fill="#F1F1F1"/>
<path d="M156.404 29.9833V15H158.791L161.924 23.5713H161.966V15H164.291V29.9833H162.05L158.771 20.6237H158.729V29.9833H156.404Z" fill="#F1F1F1"/>
<path d="M170.661 17.2411H168.171V15H175.724V17.2411H173.234V29.9833H170.659V17.2411H170.661Z" fill="#F1F1F1"/>
</g>
<defs>
<clipPath id="clip0_2_2577">
<rect width="36.8418" height="45.9933" fill="white"/>
</clipPath>
<clipPath id="clip1_2_2577">
<rect width="128.455" height="15" fill="white" transform="translate(52 15)"/>
</clipPath>
</defs>
</svg>
