<svg width="37" height="46" viewBox="0 0 37 46" fill="none" xmlns="http://www.w3.org/2000/svg">
<g clip-path="url(#clip0_2_2937)">
<path d="M36.8372 1.96483V0.122513L0 0L0.00693471 1.86313C0.048543 12.6374 0.048543 17.5425 0.0138694 25.7116C-0.00693471 31.3426 2.4572 35.7738 7.34154 38.8783C10.7326 41.0373 14.0081 43.1501 17.0779 45.1588C17.1981 45.2374 17.4593 45.4015 17.4593 45.4015L18.3955 45.9933L19.3594 45.4455C19.4588 45.3877 19.7108 45.2443 19.8679 45.1403C22.2604 43.5222 24.9002 41.8209 27.7088 40.0803C30.4711 38.3697 32.3943 36.8441 33.5871 35.4156C35.7207 32.8659 36.8094 29.6667 36.821 25.9058C36.8418 18.5735 36.851 13.6244 36.8395 1.96252L36.8372 1.96483ZM33.1202 25.8965C33.1109 28.8091 32.3342 31.1484 30.7485 33.0439C29.8239 34.1488 28.1457 35.4595 25.7601 36.9366C23.1596 38.5477 20.7024 40.1265 18.4509 41.636C15.5569 39.7451 12.4917 37.771 9.32949 35.7554C5.53621 33.3421 3.69851 30.0596 3.71469 25.7231C3.74705 18.0279 3.74937 13.2291 3.71469 3.70776L33.1433 3.80484C33.1502 14.1653 33.1433 18.9641 33.1225 25.8919L33.1202 25.8965Z" fill="#F1F1F1"/>
<path d="M20.9567 7.50317H20.8781L11.3405 7.5887L10.2749 7.59795L10.7164 8.56881L20.6931 30.5148L20.8804 30.9286L21.3334 30.9217L23.6127 30.8847L24.669 30.8685L24.2322 29.9046L15.6747 11.0329C16.1763 11.0283 16.6687 11.0214 17.1472 11.0144C17.8014 11.0052 18.4186 10.9936 19.0427 10.9936C20.0829 10.9936 20.9428 11.0237 21.7518 11.0861C24.112 11.2687 25.522 13.4948 25.4735 15.4527C25.4642 15.7994 25.3047 18.846 22.4176 19.0564L21.4444 19.1257L21.8327 20.0226L22.6903 22.0083L22.8961 22.4868L23.4116 22.422C25.314 22.184 26.8581 21.1183 27.8706 19.343C28.6727 17.9376 29.0726 16.1484 28.9385 14.5581C28.601 10.536 25.166 7.50317 20.952 7.50317H20.9567Z" fill="#F1F1F1"/>
<path d="M9.052 11.611L8.46948 10.2402L7.79451 11.5671L6.58093 13.9549L6.4353 14.2416L6.56013 14.5374L14.8171 34.1442L15.0066 34.5949L15.4967 34.5672L17.7366 34.4401L18.7213 34.3823L18.3376 33.4761L9.052 11.611Z" fill="#F1F1F1"/>
</g>
<defs>
<clipPath id="clip0_2_2937">
<rect width="36.8418" height="45.9933" fill="white"/>
</clipPath>
</defs>
</svg>
