<?xml version="1.0" encoding="UTF-8"?>
<svg id="Layer_1" xmlns="http://www.w3.org/2000/svg" version="1.1" viewBox="0 0 532.38 118.17">
  <!-- Generator: Adobe Illustrator 30.2.1, SVG Export Plug-In . SVG Version: 2.1.1 Build 1)  -->
  <defs>
    <style>
      .st0 {
        fill: #010101;
      }
    </style>
  </defs>
  <g>
    <path d="M488.29,76.22c-2.76.12-5.01.13-7.14-.02l-19.8-22.76-.2,22.88-7.65-.08.06-31.82s-2.24-2.55-3.16-3.61l9.55-.11,20.45,23.6.16-23.48,7.68-.04.04,35.43Z"/>
    <path d="M422.23,76.08c-5.45,1.7-11.07-.3-13.67-5.44l-3.78-7.47-8.53-.02-.13,13.21-7.7-.08-.04-35.5,19.92.03c1.58,0,3.77.7,5.33,1.13,4.47,1.77,7.12,5.72,6.96,10.29s-2.8,8.56-8,9.93c2.73,4.95,3.05,8.51,9.2,7.46l.44,6.45ZM408.26,56.46c2.82,0,4.45-2.21,4.37-4.74-.06-1.95-1.79-4.1-4.42-4.1h-12.06s.04,8.87.04,8.87l12.07-.03Z"/>
    <path d="M335.62,76.07c-5.87,1.81-11.08-.4-13.78-5.61l-3.78-7.3h-8.37s.05,13.18.05,13.18l-7.66-.14v-35.33c7.43-.06,14.53-.33,21.67.17,5.43.38,9.6,4.47,10.13,9.01.66,5.61-2.03,10.29-7.83,12.01,2.38,4.41,2.9,8.63,9.3,7.61l.26,6.41ZM322.22,56.33c2.76-.01,4.07-2.73,4-4.55-.09-2.19-1.69-4.14-4.27-4.15l-12.11-.06-.08,8.82,12.46-.05Z"/>
    <polygon points="284.38 61.49 269.67 61.53 269.72 69.6 291.04 69.62 291.16 76.37 261.86 76.4 261.91 40.84 289.92 40.77 289.91 47.56 269.69 47.61 269.56 54.78 284.24 54.75 284.38 61.49"/>
    <path d="M354.04,63.93l-.11,12.38-7.49-.04v-35.51c7.49.05,14.31-.22,21.15.29s10.83,5.33,10.89,11.24c.06,6.25-4.48,11.44-11.16,11.51l-13.28.13ZM365.8,57.31c3.16-.01,4.96-2.54,4.86-5.01-.1-2.59-1.99-4.77-4.96-4.76l-11.66.05.03,9.75,11.73-.04Z"/>
    <path d="M108.74,63.93l-.09,12.38-7.74-.04.06-35.47c7.55.05,14.25-.22,21.15.28,6.44.46,10.92,5.42,10.95,11.25.03,6.13-4.53,11.43-11.15,11.48l-13.19.12ZM120.42,57.24c3.1,0,4.79-2.56,4.75-4.92s-2.07-4.69-4.92-4.71l-11.57-.08.07,9.73,11.68-.03Z"/>
    <path d="M204.57,70.48l-17.53.71-2.84,5.32-8.08-.33,15.86-32.67-1.27-2.61,7.44-.08,17.46,35.26-8.49.34-2.54-5.94ZM201.59,64.23l-5.8-12.24-6.02,12.58,11.82-.34Z"/>
    <polygon points="253.78 41.01 238.88 61.96 238.76 76.31 231.08 76.28 231.15 62.53 216.12 40.95 225.03 40.78 235.1 55.5 244.89 40.78 253.78 41.01"/>
    <polygon points="518.03 76.24 510.29 76.27 510.27 47.54 498.01 47.49 498.1 40.79 530.04 40.8 529.95 47.58 518.01 47.58 518.03 76.24"/>
    <path d="M169.79,69.68c.24,1.98.28,4.09.21,6.69l-26.82.02.03-35.56,7.65-.03.04,28.61,18.9.27Z"/>
    <rect x="432.75" y="40.75" width="7.85" height="35.67" transform="translate(-.07 .49) rotate(-.06)"/>
  </g>
  <g>
    <polygon points="39.53 52.68 78.98 33.12 78.98 19.83 39.53 39.39 39.53 52.68"/>
    <polygon points=".04 52.75 78.98 13.29 78.98 0 .04 39.46 .04 52.75"/>
    <polygon points=".02 32.85 39.46 13.29 39.46 0 .02 19.56 .02 32.85"/>
    <path class="st0" d="M65.95,74.04c-.02,5.12-1.35,9.19-4.07,12.44-1.13,1.35-3.66,3.7-9.26,7.17-4.61,2.85-9,5.67-13.09,8.38-5.33-3.47-10.91-7.07-16.65-10.72-6.77-4.31-9.91-9.9-9.88-17.6.03-7.85.05-14.19.05-21.05L.05,59.18c0,4.55-.02,9.17-.05,14.48-.04,12.08,5.45,21.97,15.9,28.62,6.72,4.28,13.24,8.48,19.35,12.49.26.17.81.52.81.52l3.28,2.12,3.4-1.97s.83-.48,1.2-.72c4.74-3.21,9.97-6.58,15.52-10.02,5.76-3.57,9.82-6.8,12.39-9.88,4.69-5.6,7.07-12.58,7.1-20.74.03-11.53.05-20.1.05-34.58l-13,6.51c0,10.76-.02,18.36-.05,28.03Z"/>
  </g>
  <path d="M31.26,77.38c.76-8.36,6.58-13.96,14.69-14.65-8.4-.66-13.98-6.57-14.71-14.71-.83,8.3-6.32,13.83-14.38,14.71,8.24.97,13.47,6.53,14.39,14.65ZM48.14,87.95c.78-5.27,4.08-8.53,9.22-9.42-5.08-.81-8.67-4.37-9.19-9.56-.87,5.3-4.12,8.79-9.45,9.55,5.16.66,8.66,4.39,9.42,9.42Z"/>
</svg>