<svg width="50" height="50" viewBox="0 0 50 50" fill="none" xmlns="http://www.w3.org/2000/svg">
<path d="M38.8818 1.44091C38.8949 14.121 38.8818 19.793 38.8622 28.3272C38.8491 32.0671 37.8012 35.1847 35.7118 37.6801C34.5263 39.1014 32.4894 40.6995 29.6075 42.4876C26.4113 44.4655 23.4509 46.378 20.7328 48.2185C20.6083 48.3036 20.3005 48.4739 20.3005 48.4739C20.3005 48.4739 20.032 48.3036 19.9075 48.2185C16.4166 45.9327 12.7618 43.5748 8.94341 41.1449C4.18181 38.1189 1.65365 33.8093 1.6733 28.1176C1.7126 18.8695 1.7126 13.2237 1.66675 1.31647L38.8818 1.44091Z" stroke="#010101" stroke-width="2" stroke-miterlimit="10"/>
<path d="M1.66675 12.0186L26.1493 44.1184" stroke="#010101" stroke-width="2" stroke-miterlimit="10"/>
</svg>
