<svg width="32" height="32" viewBox="0 0 32 32" fill="none" xmlns="http://www.w3.org/2000/svg">
<g clip-path="url(#clip0_8_1497)">
<path d="M10.1501 13.46C7.89014 15.07 5.12014 16.01 2.14014 16.01" stroke="#181717" stroke-miterlimit="10"/>
<path d="M16.01 2.14001C16.01 5.12001 15.07 7.89001 13.46 10.15" stroke="#181717" stroke-miterlimit="10"/>
<path d="M18.5503 10.15C16.9503 7.89001 16.0103 5.12001 16.0103 2.14001" stroke="#181717" stroke-miterlimit="10"/>
<path d="M29.8701 16.01C26.8901 16.01 24.1301 15.07 21.8701 13.47" stroke="#181717" stroke-miterlimit="10"/>
<path d="M29.8701 16.01C26.8901 16.01 24.1301 16.95 21.8701 18.55" stroke="#181717" stroke-miterlimit="10"/>
<path d="M18.5503 21.87C16.9503 24.13 16.0103 26.89 16.0103 29.87" stroke="#181717" stroke-miterlimit="10"/>
<path d="M16.0102 29.87C16.0102 26.89 15.0702 24.13 13.4702 21.87" stroke="#181717" stroke-miterlimit="10"/>
<path d="M10.1501 18.55C7.89014 16.95 5.12014 16.01 2.14014 16.01" stroke="#181717" stroke-miterlimit="10"/>
<path d="M25.6002 6.41003C20.3002 11.71 11.7102 11.71 6.41016 6.41003" stroke="#181717" stroke-miterlimit="10"/>
<path d="M6.41016 25.6C11.7102 20.3 11.7102 11.71 6.41016 6.41003" stroke="#181717" stroke-miterlimit="10"/>
<path d="M6.41016 25.6C11.7102 20.3 20.3002 20.3 25.6002 25.6" stroke="#181717" stroke-miterlimit="10"/>
<path d="M25.6 6.41003C20.3 11.71 20.3 20.3 25.6 25.6" stroke="#181717" stroke-miterlimit="10"/>
</g>
<defs>
<clipPath id="clip0_8_1497">
<rect width="32" height="32" fill="white"/>
</clipPath>
</defs>
</svg>
