<svg width="32" height="32" viewBox="0 0 32 32" fill="none" xmlns="http://www.w3.org/2000/svg">
<g clip-path="url(#clip0_8_1322)">
<path d="M16.0498 3.24L18.5898 13.41L28.7598 15.95C28.7598 15.95 28.8098 16.03 28.7598 16.04L18.5898 18.58L16.0498 28.75C16.0498 28.75 15.9698 28.8 15.9598 28.75L13.4198 18.58L3.24976 16.04C3.24976 16.04 3.19976 15.96 3.24976 15.95L13.4198 13.41L15.9598 3.24C15.9598 3.24 16.0398 3.19 16.0498 3.24Z" stroke="#181717" stroke-miterlimit="10"/>
<path d="M18.0195 11.13L24.9995 6.94995C24.9995 6.94995 25.0895 6.96995 25.0595 7.00995L20.8795 13.98" stroke="#181717" stroke-miterlimit="10"/>
<path d="M13.99 20.87L7.00997 25.06C7.00997 25.06 6.91997 25.04 6.94997 25L11.14 18.02" stroke="#181717" stroke-miterlimit="10"/>
<path d="M11.1397 13.98L6.94971 7.00997C6.94971 7.00997 6.96971 6.91997 7.00971 6.94997L13.9897 11.13" stroke="#181717" stroke-miterlimit="10"/>
<path d="M20.8795 18.02L25.0595 25C25.0595 25 25.0395 25.09 24.9995 25.06L18.0195 20.87" stroke="#181717" stroke-miterlimit="10"/>
</g>
<defs>
<clipPath id="clip0_8_1322">
<rect width="32" height="32" fill="white"/>
</clipPath>
</defs>
</svg>
