<svg preserveAspectRatio="none" width="100%" height="100%" overflow="visible" style="display: block;" viewBox="0 0 40.4147 40.4" fill="none" xmlns="http://www.w3.org/2000/svg">
<g id="icon">
<path id="Vector" d="M20.2 1.08213L20.1996 10.8701" stroke="var(--stroke-0, #181717)" stroke-width="2" stroke-miterlimit="10"/>
<path id="Vector_2" d="M20.2074 30.0702L20.2 39.2805" stroke="var(--stroke-0, #181717)" stroke-width="2" stroke-miterlimit="10"/>
<path id="Vector_3" d="M20.2147 39.4C30.8185 39.4 39.4147 30.8039 39.4147 20.2C39.4147 9.59613 30.8185 1 20.2147 1C9.61079 1 1.01466 9.59613 1.01466 20.2C1.01466 30.8039 9.61079 39.4 20.2147 39.4Z" stroke="var(--stroke-0, #181717)" stroke-width="2" stroke-miterlimit="10"/>
<path id="Vector_4" d="M39.4 20.4702C39.4 15.1683 30.8039 10.8702 20.2 10.8702C9.59613 10.8702 1 15.1683 1 20.4702C1 25.7721 9.59613 30.0702 20.2 30.0702C30.8039 30.0702 39.4 25.7721 39.4 20.4702Z" stroke="var(--stroke-0, #181717)" stroke-width="2" stroke-miterlimit="10"/>
</g>
</svg>
