<svg preserveAspectRatio="none" width="100%" height="100%" overflow="visible" style="display: block;" viewBox="0 0 37.19 37.19" fill="none" xmlns="http://www.w3.org/2000/svg">
<g id="icon">
<path id="Vector" d="M18.625 36.19C23.4796 36.19 27.415 32.2546 27.415 27.4C27.415 22.5454 23.4796 18.61 18.625 18.61C13.7704 18.61 9.835 22.5454 9.835 27.4C9.835 32.2546 13.7704 36.19 18.625 36.19Z" stroke="var(--stroke-0, #181717)" stroke-width="2" stroke-miterlimit="10"/>
<path id="Vector_2" d="M18.595 36.175C25.8769 36.175 31.78 30.2719 31.78 22.99C31.78 15.7081 25.8769 9.805 18.595 9.805C11.3131 9.805 5.41 15.7081 5.41 22.99C5.41 30.2719 11.3131 36.175 18.595 36.175Z" stroke="var(--stroke-0, #181717)" stroke-width="2" stroke-miterlimit="10"/>
<path id="Vector_3" d="M18.595 36.19C28.3125 36.19 36.19 28.3125 36.19 18.595C36.19 8.87755 28.3125 1 18.595 1C8.87755 1 1 8.87755 1 18.595C1 28.3125 8.87755 36.19 18.595 36.19Z" stroke="var(--stroke-0, #181717)" stroke-width="2" stroke-miterlimit="10"/>
</g>
</svg>
